<mxfile host="app.diagrams.net" modified="2022-08-12T23:35:05.236Z" agent="5.0 (Windows NT 10.0; Win64; x64) AppleWebKit/537.36 (KHTML, like Gecko) Chrome/104.0.0.0 Safari/537.36" etag="J4p4ezU2SSt2Y59rCwrg" version="20.2.1" type="github">
  <diagram id="anQajuSOc3ax5JYpUaqR" name="Страница 1">
    <mxGraphModel dx="1038" dy="547" grid="1" gridSize="10" guides="1" tooltips="1" connect="1" arrows="1" fold="1" page="1" pageScale="1" pageWidth="827" pageHeight="1169" math="0" shadow="0">
      <root>
        <mxCell id="0" />
        <mxCell id="1" parent="0" />
        <mxCell id="KqICfL54pnLvxrRMNJUF-1" value="" style="rounded=1;whiteSpace=wrap;html=1;" vertex="1" parent="1">
          <mxGeometry x="239" y="190" width="120" height="210" as="geometry" />
        </mxCell>
        <mxCell id="KqICfL54pnLvxrRMNJUF-2" value="User" style="text;html=1;align=center;verticalAlign=middle;resizable=0;points=[];autosize=1;strokeColor=none;fillColor=none;fontSize=20;" vertex="1" parent="1">
          <mxGeometry x="265" y="205" width="70" height="40" as="geometry" />
        </mxCell>
        <mxCell id="KqICfL54pnLvxrRMNJUF-3" value="_id" style="text;html=1;align=center;verticalAlign=middle;resizable=0;points=[];autosize=1;strokeColor=none;fillColor=none;fontSize=20;" vertex="1" parent="1">
          <mxGeometry x="274" y="330" width="50" height="40" as="geometry" />
        </mxCell>
        <mxCell id="KqICfL54pnLvxrRMNJUF-4" value="" style="rounded=1;whiteSpace=wrap;html=1;" vertex="1" parent="1">
          <mxGeometry x="395" y="190" width="120" height="210" as="geometry" />
        </mxCell>
        <mxCell id="KqICfL54pnLvxrRMNJUF-5" value="UsersChat" style="text;html=1;align=center;verticalAlign=middle;resizable=0;points=[];autosize=1;strokeColor=none;fillColor=none;fontSize=20;" vertex="1" parent="1">
          <mxGeometry x="395" y="205" width="120" height="40" as="geometry" />
        </mxCell>
        <mxCell id="KqICfL54pnLvxrRMNJUF-6" value="_id" style="text;html=1;align=center;verticalAlign=middle;resizable=0;points=[];autosize=1;strokeColor=none;fillColor=none;fontSize=20;" vertex="1" parent="1">
          <mxGeometry x="430" y="330" width="50" height="40" as="geometry" />
        </mxCell>
        <mxCell id="KqICfL54pnLvxrRMNJUF-8" value="userId" style="text;html=1;align=center;verticalAlign=middle;resizable=0;points=[];autosize=1;strokeColor=none;fillColor=none;fontSize=20;" vertex="1" parent="1">
          <mxGeometry x="415" y="270" width="80" height="40" as="geometry" />
        </mxCell>
        <mxCell id="KqICfL54pnLvxrRMNJUF-13" value="" style="endArrow=classic;startArrow=classic;html=1;rounded=0;fontSize=20;exitX=1.028;exitY=0.625;exitDx=0;exitDy=0;exitPerimeter=0;entryX=-0.02;entryY=0.525;entryDx=0;entryDy=0;entryPerimeter=0;" edge="1" parent="1" source="KqICfL54pnLvxrRMNJUF-3" target="KqICfL54pnLvxrRMNJUF-8">
          <mxGeometry width="50" height="50" relative="1" as="geometry">
            <mxPoint x="275" y="310" as="sourcePoint" />
            <mxPoint x="325" y="260" as="targetPoint" />
            <Array as="points">
              <mxPoint x="375" y="355" />
              <mxPoint x="375" y="291" />
            </Array>
          </mxGeometry>
        </mxCell>
        <mxCell id="KqICfL54pnLvxrRMNJUF-19" value="" style="endArrow=classic;startArrow=classic;html=1;rounded=0;fontSize=20;exitX=0.544;exitY=1.105;exitDx=0;exitDy=0;exitPerimeter=0;entryX=-0.008;entryY=0.429;entryDx=0;entryDy=0;entryPerimeter=0;" edge="1" parent="1" source="KqICfL54pnLvxrRMNJUF-3" target="KqICfL54pnLvxrRMNJUF-22">
          <mxGeometry width="50" height="50" relative="1" as="geometry">
            <mxPoint x="390" y="310" as="sourcePoint" />
            <mxPoint x="570" y="320" as="targetPoint" />
            <Array as="points">
              <mxPoint x="300" y="420" />
              <mxPoint x="530" y="420" />
              <mxPoint x="530" y="320" />
            </Array>
          </mxGeometry>
        </mxCell>
        <mxCell id="KqICfL54pnLvxrRMNJUF-22" value="" style="rounded=1;whiteSpace=wrap;html=1;" vertex="1" parent="1">
          <mxGeometry x="707" y="185" width="120" height="210" as="geometry" />
        </mxCell>
        <mxCell id="KqICfL54pnLvxrRMNJUF-23" value="Message" style="text;html=1;align=center;verticalAlign=middle;resizable=0;points=[];autosize=1;strokeColor=none;fillColor=none;fontSize=20;" vertex="1" parent="1">
          <mxGeometry x="718" y="200" width="100" height="40" as="geometry" />
        </mxCell>
        <mxCell id="KqICfL54pnLvxrRMNJUF-24" value="_id" style="text;html=1;align=center;verticalAlign=middle;resizable=0;points=[];autosize=1;strokeColor=none;fillColor=none;fontSize=20;" vertex="1" parent="1">
          <mxGeometry x="742" y="325" width="50" height="40" as="geometry" />
        </mxCell>
        <mxCell id="KqICfL54pnLvxrRMNJUF-27" value="to" style="text;html=1;align=center;verticalAlign=middle;resizable=0;points=[];autosize=1;strokeColor=none;fillColor=none;fontSize=20;" vertex="1" parent="1">
          <mxGeometry x="748" y="275" width="40" height="40" as="geometry" />
        </mxCell>
        <mxCell id="KqICfL54pnLvxrRMNJUF-28" value="from" style="text;html=1;align=center;verticalAlign=middle;resizable=0;points=[];autosize=1;strokeColor=none;fillColor=none;fontSize=20;" vertex="1" parent="1">
          <mxGeometry x="738" y="250" width="60" height="40" as="geometry" />
        </mxCell>
        <mxCell id="KqICfL54pnLvxrRMNJUF-29" value="Zhora" style="shape=umlActor;verticalLabelPosition=bottom;verticalAlign=top;html=1;outlineConnect=0;fontSize=20;" vertex="1" parent="1">
          <mxGeometry x="239" y="30" width="30" height="60" as="geometry" />
        </mxCell>
        <mxCell id="KqICfL54pnLvxrRMNJUF-31" value="Send" style="rounded=0;whiteSpace=wrap;html=1;fontSize=20;" vertex="1" parent="1">
          <mxGeometry x="310" y="60" width="80" height="40" as="geometry" />
        </mxCell>
        <mxCell id="KqICfL54pnLvxrRMNJUF-33" value="person" style="shape=umlActor;verticalLabelPosition=bottom;verticalAlign=top;html=1;outlineConnect=0;fontSize=20;" vertex="1" parent="1">
          <mxGeometry x="698" y="50" width="30" height="60" as="geometry" />
        </mxCell>
        <mxCell id="KqICfL54pnLvxrRMNJUF-36" value="" style="endArrow=none;html=1;rounded=0;fontSize=20;exitX=0.5;exitY=0;exitDx=0;exitDy=0;" edge="1" parent="1">
          <mxGeometry width="50" height="50" relative="1" as="geometry">
            <mxPoint x="610" y="185" as="sourcePoint" />
            <mxPoint x="280" y="120" as="targetPoint" />
            <Array as="points">
              <mxPoint x="610" y="120" />
            </Array>
          </mxGeometry>
        </mxCell>
        <mxCell id="KqICfL54pnLvxrRMNJUF-37" value="" style="endArrow=none;html=1;rounded=0;fontSize=20;" edge="1" parent="1">
          <mxGeometry width="50" height="50" relative="1" as="geometry">
            <mxPoint x="360" y="140" as="sourcePoint" />
            <mxPoint x="280" y="120" as="targetPoint" />
            <Array as="points">
              <mxPoint x="280" y="140" />
            </Array>
          </mxGeometry>
        </mxCell>
        <mxCell id="KqICfL54pnLvxrRMNJUF-39" value="" style="rounded=1;whiteSpace=wrap;html=1;" vertex="1" parent="1">
          <mxGeometry x="395" y="470" width="120" height="210" as="geometry" />
        </mxCell>
        <mxCell id="KqICfL54pnLvxrRMNJUF-40" value="GroupChatUser" style="text;html=1;align=center;verticalAlign=middle;resizable=0;points=[];autosize=1;strokeColor=none;fillColor=none;fontSize=20;" vertex="1" parent="1">
          <mxGeometry x="375" y="485" width="160" height="40" as="geometry" />
        </mxCell>
        <mxCell id="KqICfL54pnLvxrRMNJUF-41" value="_id" style="text;html=1;align=center;verticalAlign=middle;resizable=0;points=[];autosize=1;strokeColor=none;fillColor=none;fontSize=20;" vertex="1" parent="1">
          <mxGeometry x="430" y="610" width="50" height="40" as="geometry" />
        </mxCell>
        <mxCell id="KqICfL54pnLvxrRMNJUF-42" value="userId" style="text;html=1;align=center;verticalAlign=middle;resizable=0;points=[];autosize=1;strokeColor=none;fillColor=none;fontSize=20;" vertex="1" parent="1">
          <mxGeometry x="415" y="585" width="80" height="40" as="geometry" />
        </mxCell>
        <mxCell id="KqICfL54pnLvxrRMNJUF-43" value="chatId" style="text;html=1;align=center;verticalAlign=middle;resizable=0;points=[];autosize=1;strokeColor=none;fillColor=none;fontSize=20;" vertex="1" parent="1">
          <mxGeometry x="415" y="555" width="80" height="40" as="geometry" />
        </mxCell>
        <mxCell id="KqICfL54pnLvxrRMNJUF-44" value="" style="rounded=1;whiteSpace=wrap;html=1;" vertex="1" parent="1">
          <mxGeometry x="550" y="470" width="120" height="210" as="geometry" />
        </mxCell>
        <mxCell id="KqICfL54pnLvxrRMNJUF-45" value="GroupChat" style="text;html=1;align=center;verticalAlign=middle;resizable=0;points=[];autosize=1;strokeColor=none;fillColor=none;fontSize=20;" vertex="1" parent="1">
          <mxGeometry x="550" y="485" width="120" height="40" as="geometry" />
        </mxCell>
        <mxCell id="KqICfL54pnLvxrRMNJUF-46" value="_id" style="text;html=1;align=center;verticalAlign=middle;resizable=0;points=[];autosize=1;strokeColor=none;fillColor=none;fontSize=20;" vertex="1" parent="1">
          <mxGeometry x="585" y="610" width="50" height="40" as="geometry" />
        </mxCell>
        <mxCell id="KqICfL54pnLvxrRMNJUF-47" value="creatorId" style="text;html=1;align=center;verticalAlign=middle;resizable=0;points=[];autosize=1;strokeColor=none;fillColor=none;fontSize=20;" vertex="1" parent="1">
          <mxGeometry x="560" y="585" width="100" height="40" as="geometry" />
        </mxCell>
        <mxCell id="KqICfL54pnLvxrRMNJUF-48" value="admins" style="text;html=1;align=center;verticalAlign=middle;resizable=0;points=[];autosize=1;strokeColor=none;fillColor=none;fontSize=20;" vertex="1" parent="1">
          <mxGeometry x="565" y="555" width="90" height="40" as="geometry" />
        </mxCell>
        <mxCell id="KqICfL54pnLvxrRMNJUF-50" value="" style="rounded=1;whiteSpace=wrap;html=1;" vertex="1" parent="1">
          <mxGeometry x="698" y="470" width="120" height="210" as="geometry" />
        </mxCell>
        <mxCell id="KqICfL54pnLvxrRMNJUF-51" value="GroupChatMessage" style="text;html=1;align=center;verticalAlign=middle;resizable=0;points=[];autosize=1;strokeColor=none;fillColor=none;fontSize=20;" vertex="1" parent="1">
          <mxGeometry x="659" y="485" width="200" height="40" as="geometry" />
        </mxCell>
        <mxCell id="KqICfL54pnLvxrRMNJUF-52" value="_id" style="text;html=1;align=center;verticalAlign=middle;resizable=0;points=[];autosize=1;strokeColor=none;fillColor=none;fontSize=20;" vertex="1" parent="1">
          <mxGeometry x="733" y="610" width="50" height="40" as="geometry" />
        </mxCell>
        <mxCell id="KqICfL54pnLvxrRMNJUF-53" value="chatId" style="text;html=1;align=center;verticalAlign=middle;resizable=0;points=[];autosize=1;strokeColor=none;fillColor=none;fontSize=20;" vertex="1" parent="1">
          <mxGeometry x="719" y="585" width="80" height="40" as="geometry" />
        </mxCell>
        <mxCell id="KqICfL54pnLvxrRMNJUF-56" value="from" style="text;html=1;align=center;verticalAlign=middle;resizable=0;points=[];autosize=1;strokeColor=none;fillColor=none;fontSize=20;" vertex="1" parent="1">
          <mxGeometry x="728" y="555" width="60" height="40" as="geometry" />
        </mxCell>
        <mxCell id="KqICfL54pnLvxrRMNJUF-57" value="avatar" style="text;html=1;align=center;verticalAlign=middle;resizable=0;points=[];autosize=1;strokeColor=none;fillColor=none;fontSize=20;" vertex="1" parent="1">
          <mxGeometry x="570" y="525" width="80" height="40" as="geometry" />
        </mxCell>
        <mxCell id="KqICfL54pnLvxrRMNJUF-58" value="text" style="text;html=1;align=center;verticalAlign=middle;resizable=0;points=[];autosize=1;strokeColor=none;fillColor=none;fontSize=20;" vertex="1" parent="1">
          <mxGeometry x="737" y="300" width="60" height="40" as="geometry" />
        </mxCell>
        <mxCell id="KqICfL54pnLvxrRMNJUF-59" value="who" style="text;html=1;align=center;verticalAlign=middle;resizable=0;points=[];autosize=1;strokeColor=none;fillColor=none;fontSize=20;" vertex="1" parent="1">
          <mxGeometry x="424" y="300" width="60" height="40" as="geometry" />
        </mxCell>
        <mxCell id="KqICfL54pnLvxrRMNJUF-61" value="" style="endArrow=none;html=1;rounded=0;fontSize=20;entryX=1.056;entryY=0.605;entryDx=0;entryDy=0;entryPerimeter=0;exitX=0.007;exitY=0.801;exitDx=0;exitDy=0;exitPerimeter=0;" edge="1" parent="1" source="KqICfL54pnLvxrRMNJUF-44" target="KqICfL54pnLvxrRMNJUF-6">
          <mxGeometry width="50" height="50" relative="1" as="geometry">
            <mxPoint x="590" y="400" as="sourcePoint" />
            <mxPoint x="440" y="450" as="targetPoint" />
          </mxGeometry>
        </mxCell>
        <mxCell id="KqICfL54pnLvxrRMNJUF-62" value="type" style="text;html=1;align=center;verticalAlign=middle;resizable=0;points=[];autosize=1;strokeColor=none;fillColor=none;fontSize=20;" vertex="1" parent="1">
          <mxGeometry x="424" y="235" width="60" height="40" as="geometry" />
        </mxCell>
      </root>
    </mxGraphModel>
  </diagram>
</mxfile>
